<svg xmlns="http://www.w3.org/2000/svg" viewBox="0 0 100 100" fill="none">
  <defs>
    <linearGradient id="g" x1="0" y1="0" x2="100" y2="100" gradientUnits="userSpaceOnUse">
      <stop offset="0" stop-color="#c4b5fd"/>
      <stop offset="0.55" stop-color="#8b5cf6"/>
      <stop offset="1" stop-color="#7c3aed"/>
    </linearGradient>
    <linearGradient id="f" x1="0" y1="1" x2="0" y2="0" gradientUnits="objectBoundingBox">
      <stop offset="0" stop-color="#ef4444"/>
      <stop offset="0.6" stop-color="#fb923c"/>
      <stop offset="1" stop-color="#fde68a"/>
    </linearGradient>
  </defs>
  <rect width="100" height="100" rx="28" fill="url(#g)"/>
  <g fill="#0d0b17">
    <polygon transform="rotate(45 50 50)" points="50,47 58,47 58,48.5 90,50 58,51.5 58,53 50,53"/>
    <polygon transform="rotate(135 50 50)" points="50,47 58,47 58,48.5 90,50 58,51.5 58,53 50,53"/>
    <polygon transform="rotate(225 50 50)" points="50,47 58,47 58,48.5 90,50 58,51.5 58,53 50,53"/>
    <polygon transform="rotate(315 50 50)" points="50,47 58,47 58,48.5 90,50 58,51.5 58,53 50,53"/>
  </g>
  <path fill="url(#f)" transform="translate(41,32) scale(0.72)" d="M12,0 C18,7 20,14 15,19 C12,22 6,20 7,15 C8,18 11,17 11,13 C8,12 6,8 9,3 C10,8 12,6 12,0 Z"/>
</svg>
